<?xml version="1.0" encoding="UTF-8"?>
<svg xmlns="http://www.w3.org/2000/svg" version="1.1" viewBox="0 0 517.81 371.92">
  <!-- Generator: Adobe Illustrator 30.2.1, SVG Export Plug-In . SVG Version: 2.1.1 Build 1)  -->
  <defs>
    <style>
      .st0 {
        fill: #f26522;
      }

      .st1 {
        fill: #092431;
      }
    </style>
  </defs>
  <g id="Layer_1">
    <g>
      <path class="st1" d="M122.33,134.2l9.45-54.2,1.39,50.09c5.09-1.4,10.4-2.24,15.92-2.24,4.84,0,9.39.9,13.12,2.8l-1.92-111.01h-41.2l-21.38,104.89-19.82-104.89h-42.76l-3.12,180.39h28.73l2.68-120.93,21.34,115.89c0-.14-.03-.27-.03-.41,0-25.42,15.28-49.38,37.6-60.39Z"/>
      <path class="st1" d="M162.69,158.23l-.42-24.26c-2.62-1.87-6.02-2.96-10.02-2.96-6.6,0-13.05,2.02-18.9,5.39l.92,32.91c1.63-.39,3.56-.47,5.63-.47,8.24,0,17.3-4.02,22.78-10.6Z"/>
      <path class="st1" d="M111.48,196.39l8.46-48.52c-6.9,8.39-11.31,18.97-11.31,29.64,0,6.56,1.23,12.72,2.85,18.88Z"/>
      <path class="st1" d="M153.56,176.19c-4.73,3.41-10.51,5.79-17.07,5.79-.7,0-1.27-.18-1.87-.31l.51,18.37h28.29l-.57-32.75c-2.56,3.38-5.63,6.48-9.28,8.91Z"/>
      <path class="st1" d="M233.89,201.97c24.01-1.45,38.38-14.57,38.38-39.13v-12.48h-33.41v13.59c0,9.35-4.01,12.47-9.35,12.47s-8.91-3.79-8.91-13.8v-24.73h51.67v-25.83c0-28.06-14.25-42.98-42.76-42.98s-44.76,15.37-44.76,42.98v47.21c0,19.64,8.7,33.07,23.89,39.18,6.51-5.33,12.28-8.35,17.68-8.35,5.9,0,7.34,6.36,7.57,11.85ZM220.61,110.06c0-11.81,3.34-15.14,8.69-15.14s9.57,2.9,9.57,13.14v12.92h-18.26v-10.91Z"/>
      <path class="st1" d="M340.55,180.37c5.25,0,6.83,8.41,6.83,12.08,0,1.82-.02,4.47-.22,7.58h31.55c-1.12-6.23-2.23-16.03-2.23-32.07v-3.1c-3.69,6.92-11.37,12.37-18.25,12.37-5.79,0-9.2-3.67-9.2-8.93,0-10.5,11.3-20.23,20.75-20.23,2.89,0,5.15,1.04,6.7,2.72v-42.96c0-22.72-12.91-38.75-38.97-38.75-30.06,0-44.76,14.25-46.1,45.21l33.85,1.33.89-9.35c.22-5.79,1.78-10.24,8.02-10.24s7.57,4.68,7.57,11.36v12.92c-24.28,8.46-53,18.48-53,50.56,0,8.71,3.5,17.68,10.1,23.82,4.2-2.56,8.26-4.05,12.19-4.05,5.78,0,8.14,3.68,8.14,8.67,0,.92-.1,1.9-.26,2.91,5.54-.07,10.11-1.82,13.82-4.55,1.64-4.59,2.76-8.66,3.35-11.78.79-3.68,2.63-5.52,4.47-5.52ZM321.46,163.74c0-12.92,8.24-20.72,20.27-27.62v35.19c-2.45,3.34-5.79,6.46-10.24,6.46-6.23,0-10.02-5.34-10.02-14.02Z"/>
      <path class="st1" d="M432.7,167.91c-.09-.99-.14-2.01-.14-3.06v-59.24c0-7.8,2.68-14.03,9.36-14.03,2.89,0,6.46,1.33,9.35,2.9v56.92c15.51-14.64,29.83-29.76,36.3-35.85V19.64h-36.3v59.69c-7.13-6.23-15.82-10.24-25.39-10.24-19.82,0-29.85,16.48-29.85,40.31v53.23c0,9.2,1.38,16.71,3.91,22.73h0c6.41,2.21,19.55-6.59,32.75-17.44Z"/>
      <path class="st1" d="M451.28,175.76c-3.57,2.23-7.13,3.35-9.58,3.35-3.16,0-5.34-1.43-6.8-3.74l-22.71,23.82c.8.41,1.65.75,2.5,1.07l2.66.11c6.56,0,12.35-1.84,16.81-8.41.53-.79,1.05-.79,1.31-.79.53,0,.79.53.79,1.31,0,2.75-1.09,5.85-2.96,8.63,6.17-1.75,12.25-5.52,17.98-11.1v4.18c4.4-2.48,8.73-3.81,12.84-3.81,8.54,0,14.83,6.71,23.46,7.69v-77.94l-36.3,38.06v17.57Z"/>
      <path class="st1" d="M133.18,130.09l.18,6.31c5.85-3.38,12.3-5.39,18.9-5.39,3.99,0,7.39,1.09,10.02,2.96l-.06-3.31c-3.72-1.91-8.28-2.8-13.12-2.8-5.52,0-10.83.83-15.92,2.24Z"/>
      <path class="st1" d="M412.19,199.18l22.71-23.82c-1.22-1.94-1.93-4.49-2.2-7.45-13.21,10.85-26.85,19.49-32.75,17.44h0c2.72,6.47,6.83,11.09,12.24,13.83Z"/>
      <path class="st1" d="M311.02,190.64c-3.94,0-8,1.48-12.19,4.05.62.58,1.17,1.21,1.85,1.73,2.38-1.63,4.42-2.62,5.88-2.62.79,0,1.84.53,1.84,1.84,0,1.02-.55,2.5-1.52,4.27,3.44,1.44,7.3,2.36,11.69,2.36.12,0,.22-.03.34-.03.15-1.01.26-1.99.26-2.91,0-4.99-2.36-8.67-8.14-8.67Z"/>
      <path class="st1" d="M306.56,193.8c-1.46,0-3.49,1-5.88,2.62,1.84,1.42,3.94,2.54,6.19,3.48.97-1.76,1.52-3.25,1.52-4.27,0-1.31-1.05-1.84-1.84-1.84Z"/>
      <path class="st1" d="M217.92,196.16c-1.64,0-3.98,1.23-6.8,3.34,2.41.8,4.99,1.41,7.69,1.86.54-1.3.95-2.5.95-3.36,0-1.05-.53-1.84-1.84-1.84Z"/>
    </g>
  </g>
  <g id="Layer_2">
    <g>
      <path class="st0" d="M129.39,175.93c0,2.66,1.96,5.02,5.22,5.73l-.34-12.36c-2.92.7-4.88,2.41-4.88,6.63Z"/>
      <path class="st0" d="M167.75,144.93c0,5.1-1.99,9.6-5.07,13.3l.16,9.05c5.18-6.85,8.06-14.97,8.06-21.82,0-7.49-3.52-12.15-8.69-14.8l.06,3.31c3.42,2.43,5.49,6.21,5.49,10.96Z"/>
      <path class="st0" d="M122.33,134.2l-2.38,13.67c3.81-4.63,8.37-8.56,13.41-11.47l-.18-6.31c-3.77,1.04-7.39,2.41-10.85,4.11Z"/>
      <path class="st0" d="M120.46,240.3c0-17.25-5.48-30.57-8.98-43.91l-.64,3.64h-25.17l-.93-5.04c.14,22.68,12.06,42.02,12.06,63.43,0,27.06-19.18,52.28-45.72,52.28-22.59,0-29.95-13.92-29.95-31.26,0-23.13,18.39-56.23,44.14-56.23,9.98,0,13.93,7.88,13.93,16.03,0,14.45-15.5,35.99-28.9,35.99-7.36,0-11.82-5.25-11.82-11.82,0-5.25,2.63-11.04,10.24-15.5l-.79-1.31c-8.67,4.73-11.56,11.3-11.56,17.07,0,8.93,6.04,13.93,14.98,13.93,18.92,0,31.27-19.44,31.27-35.99,0-13.66-7.36-21.28-21.02-21.28-28.9,0-50.97,26.8-50.97,53.07s15.76,39.67,40.46,39.67c40.99,0,69.36-34.68,69.36-72.77Z"/>
      <path class="st0" d="M139.9,168.84c-2.07,0-4,.08-5.63.47l.34,12.36c.61.13,1.18.31,1.87.31,6.56,0,12.35-2.37,17.07-5.79,3.65-2.43,6.72-5.53,9.28-8.91l-.16-9.05c-5.48,6.59-14.54,10.6-22.78,10.6Z"/>
      <path class="st0" d="M110.85,200.03l.64-3.64c-1.61-6.16-2.85-12.32-2.85-18.88,0-10.67,4.41-21.26,11.31-29.64l2.38-13.67c-22.32,11.01-37.6,34.96-37.6,60.39,0,.14.02.27.03.41l.93,5.04h25.17Z"/>
      <path class="st0" d="M233.94,203.78c0-.58-.02-1.2-.05-1.81-1.46.09-2.84.29-4.37.29-3.8,0-7.34-.34-10.71-.9-.78,1.87-1.91,3.97-2.99,5.84-14.71,26.01-42.3,63.05-63.06,87.74-6.83,8.15-11.55,12.35-14.44,12.35-1.84,0-2.37-1.84-2.37-2.89,0-2.63,1.32-7.36,4.47-13.66,4.21-8.41,15.77-26.8,22.86-36.52,13.09-18.03,35.29-45.32,47.85-54.73-.87-.29-1.63-.7-2.47-1.04-9.65,7.91-20.96,21.05-35.4,38.16,9.46-15.5,15.76-32.05,15.76-40.2,0-3.41-1.05-5.25-3.41-5.25-.79,0-2.36,0-3.41,1.84-6.3,9.73-19.7,29.95-36.78,55.18-17.07,25.48-53.06,78.29-59.63,89.85-1.58,2.63-2.1,4.99-2.1,7.1,0,5.52,5.26,12.87,10.77,12.87,1.32,0,2.37-.53,2.9-1.58,8.14-16.29,33.1-60.95,48.07-80.4-9.19,14.45-12.61,23.65-12.61,29.17,0,4.46,2.63,6.56,6.3,6.56,6.04,0,13.93-4.2,25.49-12.08,19.96-13.4,43.87-36.78,60.69-67.26,5.78-10.78,8.67-21.02,8.67-28.64Z"/>
      <path class="st0" d="M217.92,196.16c1.31,0,1.84.79,1.84,1.84,0,.86-.4,2.07-.95,3.36,3.37.56,6.91.9,10.71.9,1.54,0,2.91-.2,4.37-.29-.23-5.49-1.67-11.85-7.57-11.85-5.39,0-11.17,3.02-17.68,8.35.83.33,1.6.75,2.47,1.04,2.82-2.11,5.16-3.34,6.8-3.34Z"/>
      <path class="st0" d="M306.87,199.9c-3.28,5.98-11.95,15.63-25.54,25.16-3.16,2.1-4.47,3.94-4.47,5.51,0,2.9,4.99,3.41,7.61,3.41,8.93,0,16.56-4.73,20.5-7.88,6.99-5.82,12.72-15.98,13.93-23.88-.12,0-.22.03-.34.03-4.4,0-8.25-.92-11.69-2.36Z"/>
      <path class="st0" d="M261.62,232.94c9.2-12.61,12.61-23.38,12.61-30.74,0-3.16-.53-5.79-1.58-7.62-1.31-2.36-3.16-3.94-4.99-3.94s-3.94,1.58-4.73,5.52c-3.16,14.71-22.33,36.52-33.9,53.86-9.72,14.18-23.64,35.99-27.84,47.55-1.32,3.67-2.1,7.1-2.1,9.46s1.05,4.73,3.94,4.73c4.99,0,11.3-7.09,21.54-23.12,3.41-5.25,17.08-25.22,24.96-35.73,14.81-19.23,38.5-47.86,51.14-56.49-.68-.52-1.23-1.16-1.85-1.73-11.21,6.84-23.44,21.63-37.2,38.26Z"/>
      <path class="st0" d="M293.32,304.93c-1.58,0-1.84-.79-1.84-2.1,0-5.78,10.78-23.12,27.59-46.5l17.6-24.95c7.83-10.44,9.92-22.78,10.48-31.33h-.96c-.89-6.91-2.45-16.7-2.9-18.26-1.81,6.2-5.32,12.04-10.56,15.9-4.14,11.61-11.92,26.95-25.48,41.57-9.29,10.02-17.87,21.01-24.7,34.15-4.21,8.41-6.04,16.81-6.04,23.64,0,8.67,3.15,14.45,9.19,14.45,11.59,0,31.03-18.44,48.34-39.15,1.29-3.1,4.84-9.74,6.73-13.03-17.63,23.76-41.21,45.62-47.45,45.62Z"/>
      <path class="st0" d="M378.7,156.75c0-2.38-.82-4.43-2.23-5.96v14.07c1.37-2.57,2.23-5.33,2.23-8.11Z"/>
      <path class="st0" d="M343.29,181.77c.44,1.56,2,11.36,2.9,18.26h.96c.21-3.11.22-5.76.22-7.58,0-3.67-1.58-12.08-6.83-12.08-1.84,0-3.68,1.84-4.47,5.52-.6,3.13-1.72,7.19-3.35,11.78,5.24-3.86,8.76-9.7,10.56-15.9Z"/>
      <path class="st0" d="M369.77,148.08c-9.46,0-20.75,9.73-20.75,20.23,0,5.26,3.41,8.93,9.2,8.93,6.89,0,14.57-5.46,18.25-12.37v-14.07c-1.55-1.67-3.81-2.72-6.7-2.72Z"/>
      <path class="st0" d="M451.28,151.4c-6.17,5.82-12.48,11.51-18.57,16.51.27,2.95.98,5.51,2.2,7.45l16.38-17.17v-6.79Z"/>
      <path class="st0" d="M503.72,103.74c.79-.79,1.05-1.31,1.05-1.84s-.53-1.05-1.32-1.05c-1.04,0-2.1,1.05-2.62,1.58-.49.42-12.6,12.5-13.26,13.12v4.57l16.15-16.38Z"/>
      <path class="st0" d="M451.28,151.4v6.79l36.3-38.06v-4.57c-6.47,6.08-20.78,21.21-36.3,35.85Z"/>
      <path class="st0" d="M435.48,191.17c-.26,0-.75.02-1.31.79-4.73,6.5-10.13,8.08-16.81,8.41l-2.66-.11c3.34,1.26,7.03,2.01,11.2,2.01,2.48,0,4.95-.45,7.41-1.15,1.87-2.77,3.11-5.93,3.11-8.69,0-.79-.41-1.25-.93-1.25Z"/>
      <path class="st0" d="M347.57,251.2c-2.7,3.82-5.68,7.71-8.78,11.56-1.9,3.3-3.46,6.48-4.75,9.58,5.84-7,11.45-14.25,16.42-21.14h-2.89Z"/>
      <path class="st0" d="M456.76,250.54c31.27-20.23,40.72-43.61,48.08-62.53.26-.79.26-2.36-1.05-2.36-1.58,0-1.84,2.1-1.84,2.1-1.58,6.04-6.57,10.51-12.35,10.51-.7,0-1.36-.12-2.03-.2v1.96h-35.05c9.98,1.02,13.71,12.94,26.04,12.94,8.15,0,14.45-6.57,18.65-12.61-9.72,19.97-33.36,29.43-57.53,43.88-26.8,15.76-39.41,29.69-47.03,54.38-1.05,3.41-1.58,6.3-1.58,8.41,0,3.41,1.31,4.99,2.63,4.99s2.62-1.58,2.62-3.94c0-2.1-.79-3.68-.79-5.26,0-3.67,2.63-6.83,6.3-6.83,9.98,0,17.08,15.76,28.64,15.76,8.15,0,17.08-6.83,26.01-19.96,7.61-11.04,22.07-30.74,31.27-43.61l-2.9-.27c-7.88,12.09-19.18,26.27-26.27,34.95-4.46,5.78-8.93,9.19-14.18,9.19-11.3,0-17.07-13.13-28.37-13.13-6.04,0-12.35,3.94-18.66,15.24,9.73-26.01,34.42-27.58,59.38-43.61Z"/>
      <path class="st0" d="M487.57,198.07c-8.63-.98-14.92-7.69-23.46-7.69-4.1,0-8.44,1.33-12.84,3.81v5.66c.45,0,.82.14,1.25.18h35.05v-1.96Z"/>
      <path class="st0" d="M439.94,203.26c-3.26,4.17-6.71,9.41-6.71,9.41-17.07,24.17-73.16,91.47-82.35,91.47-2.1,0-3.16-1.84-3.16-4.99,0-9.2,8.41-29.43,22.6-48.86,8.14-11.56,21.54-27.85,34.68-43.09,3.94,1.05,8.41,1.84,14.44,1.84s10.89-3.55,13.85-7.93c-2.46.7-4.93,1.15-7.41,1.15-4.17,0-7.85-.75-11.2-2.01l-3.38-.15.88-.92c-5.41-2.74-9.52-7.36-12.24-13.83l-13.08,15.01c-8.14,1.32-14.97,4.47-20.23,8.41l1.05,1.58c4.99-3.15,10.24-5.52,15.76-6.04l-.79.79c-14.45,17.07-32.05,38.35-42.83,55.69-.41.68-.68,1.31-1.06,1.98,3.1-3.86,6.08-7.75,8.78-11.56h2.89c-4.97,6.9-10.58,14.15-16.42,21.14-3.13,7.52-4.7,14.44-4.7,20.24,0,11.56,5.51,18.92,13.66,18.92,18.88,0,78.78-72.51,93.41-96.57,2.5-4.12,7.47-15.09,14.83-15.09.01,0,.02,0,.04,0v-5.66c-3.77,2.12-7.95,4.74-11.33,9.07Z"/>
    </g>
  </g>
</svg>